<svg xmlns="http://www.w3.org/2000/svg" width="92.75" height="50.75" viewBox="0 0 92.75 50.75"><path fill="#ffffff" d="M46.6 32.524c-7.271 0-13.198-5.917-13.198-13.186V.696c0-.153.129-.279.287-.279h14.335a.28.28 0 0 1 .276.279v23.262a.277.277 0 0 1-.162.258.345.345 0 0 1-.114.028c-.063 0-.148-.029-.19-.09l-2.868-2.86a.266.266 0 0 1-.091-.197V3.844h-8.04v15.494c0 5.377 4.377 9.752 9.766 9.752 5.37 0 9.747-4.375 9.747-9.752V3.843a.27.27 0 0 1 .182-.258.222.222 0 0 1 .094-.021c.088 0 .148.026.209.081l2.865 2.865a.335.335 0 0 1 .072.2v12.629c-.001 7.268-5.906 13.185-13.17 13.185zM89.099 38.444c.09-.198.211-.377.363-.524a1.68 1.68 0 0 1 .539-.346 1.675 1.675 0 0 1 1.286 0c.203.083.381.203.533.346.15.147.268.326.352.524.09.199.137.423.137.652 0 .24-.047.462-.137.664a1.632 1.632 0 0 1-.352.53 1.64 1.64 0 0 1-.533.348c-.201.079-.42.123-.645.123a1.713 1.713 0 0 1-1.18-.471 1.735 1.735 0 0 1-.363-.53 1.675 1.675 0 0 1-.125-.664c0-.229.039-.453.125-.652zm.273 1.219c.068.172.17.324.295.447a1.294 1.294 0 0 0 .975.409c.191 0 .373-.033.543-.107a1.3 1.3 0 0 0 .426-.302 1.32 1.32 0 0 0 .289-.447c.074-.175.105-.358.105-.567 0-.199-.031-.381-.105-.552a1.296 1.296 0 0 0-.289-.448 1.456 1.456 0 0 0-.426-.299 1.477 1.477 0 0 0-.543-.108c-.197 0-.379.042-.545.108a1.467 1.467 0 0 0-.43.299 1.282 1.282 0 0 0-.295.448 1.577 1.577 0 0 0-.096.552c0 .209.034.392.096.567zm1.371-1.53c.232 0 .406.047.514.143.111.091.172.229.172.412 0 .18-.057.303-.15.388a.636.636 0 0 1-.363.14l.551.86h-.324l-.529-.837h-.318v.837h-.301v-1.942h.748zm-.131.861c.066 0 .131-.003.191-.006a.41.41 0 0 0 .164-.038.228.228 0 0 0 .107-.096.333.333 0 0 0 .01-.335.23.23 0 0 0-.1-.088.736.736 0 0 0-.133-.042 1.795 1.795 0 0 0-.15-.007h-.408v.613h.319zM13.401 39.12c-.106-.018-.22-.039-.335-.056l-.214-.043.029.217c.043.31.07.882.081 1.703.008.834.014 2.023.014 3.56 0 .333-.006.702-.014 1.102-.011.394-.05.789-.115 1.18-.061.392-.162.77-.306 1.125a2.93 2.93 0 0 1-.578.924 2.689 2.689 0 0 1-.946.646c-.384.167-.868.248-1.442.248-.588 0-1.085-.068-1.475-.212a2.685 2.685 0 0 1-.973-.566 2.525 2.525 0 0 1-.585-.843 4.472 4.472 0 0 1-.31-1.034 7.974 7.974 0 0 1-.11-1.135 34.432 34.432 0 0 1-.018-1.141 87.825 87.825 0 0 1 .065-3.324c.024-.489.044-.923.066-1.313.021-.38.042-.686.066-.927l.017-.207-.2.04c-.118.017-.235.038-.345.054a2.919 2.919 0 0 1-.736-.001c-.146-.017-.283-.036-.412-.053l-.191-.031.009.191c.021.49.044 1.082.063 1.789.024.717.034 1.532.034 2.414 0 .404-.013.804-.039 1.205-.029.396-.043.854-.043 1.364 0 1.633.39 2.845 1.152 3.608.765.765 1.995 1.15 3.658 1.15.748 0 1.426-.106 2.01-.318a3.972 3.972 0 0 0 1.501-.945c.401-.417.716-.926.938-1.523.214-.583.332-1.26.342-2.002.008-.592.026-1.208.051-1.843.017-.635.04-1.249.063-1.85.02-.603.045-1.166.076-1.692.038-.518.069-.972.103-1.351l.017-.227-.219.063a1.627 1.627 0 0 1-.749.054zM24.411 49.618c-.245-.293-.514-.611-.79-.961-.279-.355-.575-.724-.879-1.105-.303-.388-.601-.754-.878-1.109-.28-.352-.54-.674-.761-.962-.146-.186-.269-.347-.381-.48.26-.049.533-.125.813-.23a4.092 4.092 0 0 0 1.122-.591c.357-.255.66-.58.902-.969.245-.396.366-.878.366-1.422 0-.515-.092-.952-.28-1.299-.2-.348-.455-.63-.784-.845a3.481 3.481 0 0 0-1.144-.453c-.708-.146-1.522-.158-2.271-.093a12.52 12.52 0 0 1-1.826.017l-.929-.052-.176-.015.012.177c.032.716.063 1.415.088 2.105.024.715.04 1.421.04 2.096v2.797c0 .68-.016 1.391-.04 2.108-.024.694-.055 1.376-.088 2.049l-.012.177.178-.015a10.548 10.548 0 0 1 1.57 0l.179.015-.008-.179c-.033-.671-.063-1.353-.088-2.047a54.816 54.816 0 0 1-.046-2.108v-1.029h.393c.333.348.701.771 1.091 1.252.419.515.831 1.032 1.231 1.547a79.95 79.95 0 0 1 1.829 2.482l.053.079.097-.013a3.15 3.15 0 0 1 .448-.03h.965c.155 0 .307.009.461.03l.473.061-.33-.326c-.15-.149-.347-.361-.6-.659zm-3.209-5.828a2.927 2.927 0 0 1-.946.377 6.081 6.081 0 0 1-1.955.058v-.799c0-.563.016-1.153.031-1.747l.06-1.641c.146-.013.311-.026.498-.037.435-.03 1.097-.076 1.763.061.271.053.52.155.758.307.222.15.418.358.554.604.146.255.221.585.221.974 0 .457-.097.837-.283 1.127a2.223 2.223 0 0 1-.701.716zM32.896 45.011c-.433-.331-.979-.548-1.644-.662a4.12 4.12 0 0 0 1.35-.791c.527-.484.8-1.159.8-1.998 0-.484-.092-.893-.3-1.224a2.081 2.081 0 0 0-.792-.774 3.486 3.486 0 0 0-1.148-.394c-.668-.119-1.453-.139-2.211-.072-.58.057-1.132.052-1.703.017l-.868-.052-.175-.015.017.177c.032.689.062 1.385.086 2.079.024.673.04 1.38.04 2.107v2.796c0 .726-.016 1.431-.04 2.102-.024.687-.054 1.379-.086 2.07l-.017.177.176-.015c.261-.021.513-.03.783-.03h.788c.255 0 .516.007.785.015.76.033 1.515.023 2.269-.142.489-.105.95-.292 1.367-.557a3.18 3.18 0 0 0 1.029-1.047c.27-.438.393-.979.393-1.614-.001-.975-.304-1.7-.899-2.153zm-1.48-2.094c-.164.278-.38.494-.649.661a3.015 3.015 0 0 1-.957.361 5.447 5.447 0 0 1-1.101.111h-.721v-1.063c0-.52.021-1.042.035-1.533l.058-1.419c.113-.013.244-.024.386-.033a7.397 7.397 0 0 1 1.624.045c.283.045.556.136.794.272.216.136.404.321.549.563.151.239.23.572.23.982 0 .424-.081.778-.248 1.053zm.563 4.184c0 .413-.061.786-.184 1.104-.146.318-.321.59-.543.808a2.039 2.039 0 0 1-.787.494c-.563.212-1.207.182-1.788.146a14.884 14.884 0 0 1-.595-.041l-.059-1.508c-.014-.53-.035-1.079-.035-1.635v-1.502h.573c.541 0 1.025.033 1.449.095s.787.177 1.088.333c.279.157.502.363.663.637.155.272.218.634.218 1.069zM44.394 49.187c-.216-.498-.458-1.067-.731-1.701-.281-.633-.574-1.319-.896-2.053-.314-.739-.619-1.48-.947-2.23-.306-.746-.61-1.487-.913-2.216l-.895-2.135h-.521l-.036.091c-.848 1.938-1.692 3.847-2.513 5.721a610.201 610.201 0 0 1-2.572 5.659l-.121.253.272-.033a6.11 6.11 0 0 1 1.179 0l.123.015.035-.126c.146-.498.357-1.13.631-1.885.271-.704.561-1.46.908-2.312.302-.011.604-.017.88-.023a78.588 78.588 0 0 1 2.06 0c.329.007.646.013.965.023.121.326.271.675.417 1.033l.472 1.17c.163.387.297.752.437 1.101.128.35.219.649.31.896l.03.128.135-.02a2.81 2.81 0 0 1 .41-.03h.855c.14 0 .265.009.416.03l.303.044-.151-.277c-.125-.252-.306-.631-.542-1.123zm-3.456-4.008c-.221.011-.454.015-.667.017-.6.013-1.16.014-1.785-.004-.221-.011-.439-.013-.647-.015l1.526-3.583 1.573 3.585zM55.499 39.139c-.141 0-.303-.027-.514-.076l-.213-.052.021.215c.039.927.084 1.951.1 3.043.02 1.078.031 2.182.031 3.318v1.831c-.426-.435-.916-.939-1.484-1.54-.666-.708-1.361-1.458-2.117-2.259-.727-.795-1.482-1.602-2.241-2.42-.756-.819-1.453-1.588-2.119-2.302l-.046-.046h-.499l.014.166c.018.365.039.925.047 1.667v2.679c0 .358 0 .761-.014 1.215-.016.455-.016.921-.047 1.401-.005.472-.029.948-.061 1.425-.029.475-.058.921-.064 1.323a26.68 26.68 0 0 1-.087 1.044c-.03.312-.043.493-.061.584l-.048.212.222-.024a5.383 5.383 0 0 1 1.128 0l.201.024-.02-.197a3.054 3.054 0 0 1-.029-.484 10.4 10.4 0 0 1-.034-.853l-.034-1.054c-.023-.378-.023-.755-.023-1.12l-.029-1.059v-.844c0-.877 0-1.565.021-2.078.009-.317.009-.602.009-.84a508.698 508.698 0 0 1 3.968 4.235 169.514 169.514 0 0 1 3.994 4.429l.033.052h.455v-.692c0-.262-.002-.568-.004-.918 0-.355 0-.736-.012-1.141l-.02-1.212v-2.127c0-.314 0-.727.031-1.244.016-.524.035-1.054.061-1.595.029-.538.061-1.051.09-1.523.031-.478.055-.829.066-1.071l.025-.223-.213.057a2.386 2.386 0 0 1-.484.074zM67.286 49.187a113.13 113.13 0 0 1-.738-1.701c-.277-.633-.576-1.319-.891-2.053l-.072-.149c-.279-.692-.582-1.38-.877-2.08-.311-.748-.613-1.489-.916-2.218l-.891-2.135h-.52l-.043.091c-.846 1.938-1.684 3.847-2.51 5.721a485.225 485.225 0 0 1-2.574 5.659l-.121.253.275-.033a6.1 6.1 0 0 1 1.178 0l.121.015.043-.127c.139-.493.352-1.125.623-1.884.273-.729.576-1.506.908-2.312.303-.011.605-.017.887-.023a70.931 70.931 0 0 1 2.063 0c.318.007.641.013.955.023.123.326.271.675.424 1.033l.473 1.17c.16.387.295.752.434 1.101.123.35.221.65.305.893l.031.131.137-.02c.137-.021.285-.03.406-.03h.859c.141 0 .264.009.412.03l.305.043-.148-.276a57.266 57.266 0 0 1-.538-1.122zm-3.461-4.008c-.215.011-.455.015-.668.017-.598.013-1.152.014-1.785-.004-.215-.011-.436-.013-.645-.015l1.527-3.583 1.571 3.585zM76.909 49.618a37.28 37.28 0 0 1-.791-.961c-.277-.355-.576-.724-.879-1.104a78 78 0 0 0-.879-1.11c-.275-.352-.537-.674-.76-.962a11.022 11.022 0 0 1-.365-.48c.244-.049.516-.125.805-.23a4.346 4.346 0 0 0 1.127-.591 3.43 3.43 0 0 0 .887-.969c.246-.396.375-.878.375-1.422 0-.515-.1-.951-.285-1.299a2.313 2.313 0 0 0-.787-.845 3.38 3.38 0 0 0-1.129-.453c-.719-.146-1.535-.158-2.277-.093-.592.057-1.225.049-1.83.017-.303-.017-.605-.035-.928-.052l-.168-.015.006.177c.029.716.061 1.415.09 2.105.031.683.033 1.384.033 2.096v2.797c0 .71-.002 1.422-.033 2.108-.029.694-.061 1.376-.09 2.047l-.01.179.178-.015a10.428 10.428 0 0 1 1.561 0l.18.015-.002-.179c-.029-.671-.061-1.353-.09-2.047a47.105 47.105 0 0 1-.039-2.108v-1.029h.396c.33.348.699.771 1.09 1.252.408.515.822 1.032 1.219 1.548.391.498.754.989 1.092 1.461.332.451.578.792.75 1.02l.051.079.1-.013a2.84 2.84 0 0 1 .441-.03h.959c.154 0 .318.009.475.03l.459.061-.334-.326a15.658 15.658 0 0 1-.598-.659zm-3.211-5.828a2.886 2.886 0 0 1-.945.377 6.029 6.029 0 0 1-1.602.094 2.91 2.91 0 0 1-.344-.036v-.799c0-.621.008-1.19.037-1.747l.057-1.641c.135-.013.309-.026.488-.037.43-.03 1.094-.076 1.76.061a2.1 2.1 0 0 1 .758.307c.238.15.42.348.568.606.133.252.215.578.215.972 0 .457-.092.837-.273 1.127a2.215 2.215 0 0 1-.719.716zM88.72 50.309a17.379 17.379 0 0 1-.533-1.123 82.314 82.314 0 0 1-.754-1.701c-.271-.633-.574-1.319-.879-2.053-.322-.739-.633-1.48-.945-2.229-.316-.748-.627-1.489-.93-2.218l-.879-2.134h-.52l-.047.091c-.848 1.938-1.682 3.847-2.52 5.721a360.438 360.438 0 0 1-2.568 5.659l-.119.253.283-.033a5.66 5.66 0 0 1 1.164 0l.133.015.047-.127c.129-.493.34-1.125.619-1.884.281-.748.586-1.522.902-2.312.301-.011.598-.017.893-.023a71 71 0 0 1 2.064 0c.313.007.637.013.941.023.131.326.271.675.424 1.033l.482 1.17c.152.387.297.752.426 1.101.129.362.236.653.303.893l.037.131.141-.02c.137-.021.275-.03.402-.03h.869c.123 0 .254.009.402.03l.309.044-.147-.277zm-4.002-5.13c-.221.011-.453.015-.674.017-.578.013-1.15.014-1.781-.004-.217-.011-.43-.013-.641-.015l1.531-3.583 1.565 3.585z"/></svg>